#!OML:ASF E:\acrobat2\Project_11_07_03\Capture day 1\Session 1\Acrobat.ASF
:FULLY-SPECIFIED
:DEGREES
161
root 7.86955 17.8512 -0.482864 4.18282 -50.7715 1.78065
lowerback 3.97745 1.377 4.40669
upperback 1.71686 1.9722 -1.2316
thorax -0.26818 1.00816 -3.81991
lowerneck -1.74104 5.64321 2.81383
upperneck 2.48928 7.56425 -3.99483
head 1.34875 3.74832 -1.58149
rclavicle -7.1637e-014 1.39149e-015
rhumerus -23.8788 21.9971 -89.1664
rradius 60.3777
rwrist -29.2548
rhand -10.0217 -24.5239
rfingers 7.12502
rthumb 15.9628 -53.8861
lclavicle -7.1637e-014 1.39149e-015
lhumerus -38.5466 -6.79679 65.1138
lradius 9.87866
lwrist -33.1959
lhand -3.95592 -26.5755
lfingers 7.12502
lthumb 21.7963 2.21719
rfemur -9.74866 -8.46229 13.1524
rtibia 32.5119
rfoot -17.824 -7.97581
rtoes -12.1986
lfemur -19.8353 5.03526 -6.87559
ltibia 31.449
lfoot 0.312809 -8.39519
ltoes 49.1618
162
root 7.841 17.9528 -0.518852 4.59661 -50.4207 1.54948
lowerback 4.4982 1.47189 4.22143
upperback 1.60365 2.11714 -1.01406
thorax -0.677085 1.06674 -3.5151
lowerneck -1.95464 5.67232 2.58322
upperneck 3.37652 7.62132 -3.76837
head 1.65077 3.76883 -1.45192
rclavicle 1.14202e-013 -4.57205e-015
rhumerus -17.965 26.5485 -85.8888
rradius 67.1992
rwrist -29.1718
rhand -8.2121 -35.232
rfingers 7.12502
rthumb 17.7047 -64.4459
lclavicle 1.14202e-013 -4.57205e-015
lhumerus -40.7816 -6.06944 58.7302
lradius 10.0909
lwrist -37.605
lhand 1.55933 -26.477
lfingers 7.12502
lthumb 27.0831 1.60047
rfemur -8.98253 -8.09861 13.415
rtibia 30.6011
rfoot -16.1933 -8.28576
rtoes -14.5365
lfemur -22.0437 5.7271 -6.52926
ltibia 34.1018
lfoot 2.97659 -5.1952
ltoes 50.4326
163
root 7.81471 18.0974 -0.543279 5.08398 -50.0997 1.41525
lowerback 4.88494 1.64682 3.99836
upperback 1.43176 2.3615 -0.846402
thorax -1.06435 1.17615 -3.24513
lowerneck -2.20284 5.53634 2.06543
upperneck 4.58627 7.45078 -3.05462
head 2.02308 3.6781 -1.12174
rclavicle -2.77305e-014 1.19271e-015
rhumerus -10.8229 30.4044 -80.7968
rradius 73.6149
rwrist -28.7635
rhand -5.86087 -45.8713
rfingers 7.12502
rthumb 19.9661 -74.8656
lclavicle -2.77305e-014 1.19271e-015
lhumerus -43.1895 -11.2826 57.4185
lradius 10.1326
lwrist -33.8986
lhand 0.470387 -24.7259
lfingers 7.12502
lthumb 26.0408 3.50934
rfemur -7.85608 -7.5028 13.6757
rtibia 27.6456
rfoot -14.2747 -9.21116
rtoes -16.7244
lfemur -24.5356 6.18967 -6.40569
ltibia 36.7022
lfoot 5.60344 -1.3713
ltoes 49.9948
164
root 7.78978 18.2775 -0.551402 5.88069 -49.8325 1.0414
lowerback 5.09405 1.89841 4.04545
upperback 1.31039 2.7112 -0.7643
thorax -1.2781 1.34379 -3.21591
lowerneck -2.2817 5.42633 2.37288
upperneck 5.43039 7.3053 -3.02431
head 2.32322 3.60467 -1.15664
rclavicle -8.87574e-014 1.11319e-014
rhumerus -2.26064 33.6107 -73.4288
rradius 78.6876
rwrist -29.1385
rhand -6.37695 -45.6061
rfingers 7.12502
rthumb 19.47 -74.6512
lclavicle -8.87574e-014 1.11319e-014
lhumerus -45.6537 -17.089 56.7174
lradius 10.3078
lwrist -29.1642
lhand 2.28523 -23.4541
lfingers 7.12502
lthumb 27.7773 4.51335
rfemur -6.54657 -6.28122 14.2622
rtibia 23.9731
rfoot -12.52 -10.6007
rtoes -14.2046
lfemur -26.9429 6.29177 -6.2003
ltibia 38.7593
lfoot 8.45036 2.1861
ltoes 46.8247
165
root 7.7718 18.4885 -0.54802 6.75786 -49.7101 0.678685
lowerback 5.22595 2.23549 4.17863
upperback 1.26091 3.17268 -0.800317
thorax -1.354 1.57137 -3.35936
lowerneck -2.87356 4.99922 2.25931
upperneck 6.32152 6.71793 -2.55391
head 2.68476 3.31203 -0.982504
rclavicle 5.28767e-014 -1.03368e-014
rhumerus 7.56035 35.1383 -64.2912
rradius 83.1098
rwrist -29.5437
rhand -5.88287 -44.6463
rfingers 7.12502
rthumb 19.9449 -73.6428
lclavicle 5.28767e-014 -1.03368e-014
lhumerus -48.8895 -24.1306 57.6331
lradius 10.6776
lwrist -21.8322
lhand 2.76965 -22.8306
lfingers 7.12502
lthumb 28.2404 5.06126
rfemur -5.20187 -4.50758 14.9636
rtibia 19.8985
rfoot -10.6456 -12.7549
rtoes -10.4818
lfemur -29.0127 6.13603 -6.10032
ltibia 40.0082
lfoot 10.5371 4.72744
ltoes 41.1495
166
root 7.76009 18.7208 -0.532935 7.81221 -49.6837 0.147045
lowerback 5.35675 2.62896 4.30996
upperback 1.26073 3.7092 -0.755613
thorax -1.37425 1.83809 -3.42175
lowerneck -3.09569 4.7778 2.03879
upperneck 6.91527 6.41265 -2.17139
head 2.89265 3.16124 -0.821991
rclavicle -5.95857e-014 1.07344e-014
rhumerus 18.4148 35.2451 -53.8504
rradius 86.607
rwrist -30.6606
rhand -6.87499 -43.5766
rfingers 7.12502
rthumb 18.991 -72.6695
lclavicle -5.95857e-014 1.07344e-014
lhumerus -51.6537 -28.7261 57.2063
lradius 10.7735
lwrist -16.1166
lhand 4.13422 -22.3458
lfingers 7.12502
lthumb 29.5438 5.3231
rfemur -3.8611 -2.451 15.7805
rtibia 15.668
rfoot -8.82888 -15.4251
rtoes -4.105
lfemur -31.0419 6.0201 -6.01351
ltibia 41.0669
lfoot 11.5191 5.95
ltoes 37.0512
